<?xml version="1.0"?>
<svg version="1.1" xmlns="http://www.w3.org/2000/svg" xmlns:xlink="http://www.w3.org/1999/xlink" width="888" height="140">
    <desc iVinci="yes" version="4.6" gridStep="20" showGrid="no" snapToGrid="no" codePlatform="0" markedExportShape="1"/>
    <g id="Layer1" name="Layer 1" opacity="1">
        <g id="Shape1">
            <desc shapeID="1" type="0" basicInfo-basicType="1" basicInfo-roundedRectRadius="12" basicInfo-polygonSides="6" basicInfo-starPoints="5" bounding="rect(-109,-61.5,218,123)" text="" font-familyName="Helvetica" font-pixelSize="20" font-bold="0" font-underline="0" font-alignment="1" strokeStyle="0" markerStart="0" markerEnd="0" shadowEnabled="0" shadowOffsetX="0" shadowOffsetY="2" shadowBlur="4" shadowOpacity="160" blurEnabled="0" blurRadius="4" transform="matrix(4.07339,0,0,1.13821,444,70)" pers-center="0,0" pers-size="0,0" pers-start="0,0" pers-end="0,0" locked="0" mesh="" flag=""/>
            <path id="shapePath1" d="M9.15527e-05,3.8147e-05 L888,3.8147e-05 L888,140 L9.15527e-05,140 L9.15527e-05,3.8147e-05 Z" style="stroke:none;fill-rule:evenodd;fill:#7dbcff;fill-opacity:1;"/>
        </g>
        <g id="Shape2">
            <desc shapeID="2" type="2" basicInfo-basicType="0" basicInfo-roundedRectRadius="12" basicInfo-polygonSides="6" basicInfo-starPoints="5" bounding="rect(-59.5,-31.1182,119,62.2363)" text="ᚱ" font-familyName="Helvetica" font-pixelSize="46" font-bold="0" font-underline="0" font-alignment="1" strokeStyle="0" markerStart="0" markerEnd="0" shadowEnabled="0" shadowOffsetX="0" shadowOffsetY="2" shadowBlur="4" shadowOpacity="160" blurEnabled="0" blurRadius="4" transform="matrix(1,0,0,1,442.567,51.1946)" pers-center="0,0" pers-size="0,0" pers-start="0,0" pers-end="0,0" locked="0" mesh="" flag=""/>
            <path id="shapePath2" d="M439.654,69.2415 L435.521,69.2415 L435.521,36.4036 L439.654,36.4036 L450.233,42.3782 L450.233,46.8928 L446.46,53.3616 L452.479,69.2415 L448.077,69.2415 L442.102,53.137 L446.729,45.0959 L439.654,41.0979 L439.654,69.2415 Z" style="stroke:none;fill-rule:nonzero;fill:#ffffff;fill-opacity:1;"/>
        </g>
        <g id="Shape3">
            <desc shapeID="3" type="2" basicInfo-basicType="0" basicInfo-roundedRectRadius="12" basicInfo-polygonSides="6" basicInfo-starPoints="5" bounding="rect(-89.7948,-45.9063,179.59,91.8127)" text="Raidō" font-familyName="Herculanum" font-pixelSize="20" font-bold="0" font-underline="0" font-alignment="1" strokeStyle="0" markerStart="0" markerEnd="0" shadowEnabled="0" shadowOffsetX="0" shadowOffsetY="2" shadowBlur="4" shadowOpacity="160" blurEnabled="0" blurRadius="4" transform="matrix(1,0,0,1,443.747,97.2121)" pers-center="0,0" pers-size="0,0" pers-start="0,0" pers-end="0,0" locked="0" mesh="" flag=""/>
            <path id="shapePath3" d="M418.845,96.6165 L418.845,95.7565 C418.845,95.4765 418.851,95.1798 418.865,94.8665 C418.878,94.5532 418.895,94.2498 418.915,93.9565 C418.935,93.6632 418.958,93.4032 418.984,93.1765 C419.011,92.9498 419.044,92.7765 419.085,92.6565 C419.231,92.4432 419.431,92.2832 419.685,92.1765 C419.938,92.0698 420.178,92.0165 420.405,92.0165 C420.778,92.0165 421.098,92.1532 421.365,92.4265 C421.631,92.6998 421.764,93.1698 421.764,93.8365 C421.764,94.3032 421.641,94.7198 421.395,95.0865 C421.148,95.4532 420.868,95.7598 420.555,96.0065 C420.241,96.2532 419.948,96.4432 419.674,96.5765 C419.401,96.7098 419.245,96.7765 419.204,96.7765 C419.005,96.7765 418.885,96.7232 418.845,96.6165 M420.745,90.8565 C420.598,90.8565 420.395,90.8798 420.135,90.9265 C419.875,90.9732 419.585,91.0498 419.264,91.1565 C418.945,91.2632 418.605,91.3998 418.245,91.5665 C417.885,91.7332 417.538,91.9365 417.204,92.1765 C417.031,92.2965 416.945,92.4698 416.945,92.6965 C416.945,92.8298 416.971,92.9265 417.025,92.9865 C417.078,93.0465 417.135,93.0898 417.195,93.1165 C417.255,93.1432 417.315,93.1732 417.375,93.2065 C417.435,93.2398 417.471,93.3098 417.484,93.4165 C417.525,93.7765 417.555,94.2132 417.575,94.7265 C417.595,95.2398 417.605,95.7765 417.605,96.3365 L417.605,97.3965 C417.605,97.6365 417.598,97.9898 417.585,98.4565 C417.571,98.9232 417.555,99.3965 417.535,99.8765 C417.514,100.356 417.488,100.786 417.454,101.166 C417.421,101.546 417.385,101.77 417.345,101.836 C417.238,101.983 417.148,102.11 417.075,102.216 C417.001,102.323 416.965,102.41 416.965,102.476 C416.965,102.57 417.025,102.66 417.145,102.746 C417.264,102.833 417.405,102.91 417.565,102.976 C417.725,103.043 417.885,103.096 418.044,103.136 C418.204,103.176 418.331,103.196 418.424,103.196 C418.571,103.196 418.671,103.153 418.725,103.066 C418.778,102.98 418.805,102.883 418.805,102.776 L418.805,99.5165 C418.805,99.1832 418.808,98.8898 418.815,98.6365 C418.821,98.3832 418.831,98.1498 418.845,97.9365 C419.018,97.9365 419.174,97.9598 419.315,98.0065 C419.454,98.0532 419.591,98.1498 419.725,98.2965 L421.885,100.636 C422.351,101.143 422.715,101.556 422.975,101.876 C423.234,102.196 423.458,102.47 423.645,102.696 C423.751,102.83 423.848,102.913 423.935,102.946 C424.021,102.98 424.118,102.996 424.225,102.996 L424.544,102.996 C424.611,102.996 424.674,102.97 424.734,102.916 C424.794,102.863 424.885,102.776 425.005,102.656 C425.111,102.55 425.181,102.46 425.215,102.386 C425.248,102.313 425.264,102.23 425.264,102.136 C425.264,102.083 425.138,101.943 424.885,101.716 C424.631,101.49 424.298,101.183 423.885,100.796 C423.471,100.41 423.001,99.9465 422.475,99.4065 C421.948,98.8665 421.405,98.2498 420.845,97.5565 C420.764,97.4498 420.671,97.3765 420.565,97.3365 C420.458,97.2965 420.331,97.2632 420.185,97.2365 L420.185,97.1965 L421.605,96.5565 C421.778,96.4765 421.958,96.3565 422.145,96.1965 C422.331,96.0365 422.505,95.8332 422.665,95.5865 C422.825,95.3398 422.954,95.0465 423.055,94.7065 C423.155,94.3665 423.204,93.9832 423.204,93.5565 C423.204,92.7965 423.001,92.1565 422.595,91.6365 C422.188,91.1165 421.571,90.8565 420.745,90.8565 M431.714,95.7165 L434.854,98.9165 C434.801,98.9432 434.721,98.9665 434.614,98.9865 C434.507,99.0065 434.347,99.0232 434.134,99.0365 C433.921,99.0498 433.641,99.0598 433.294,99.0665 C432.947,99.0732 432.514,99.0765 431.994,99.0765 C431.514,99.0765 431.141,99.0732 430.874,99.0665 C430.607,99.0598 430.407,99.0498 430.274,99.0365 C430.141,99.0232 430.057,98.9998 430.024,98.9665 C429.991,98.9332 429.974,98.8898 429.974,98.8365 C429.974,98.7698 430.001,98.6898 430.054,98.5965 C430.107,98.5032 430.221,98.3032 430.394,97.9965 L431.714,95.7165 M430.554,99.9965 L435.854,99.9965 C437.201,101.356 438.094,102.336 438.534,102.936 C438.601,103.016 438.654,103.103 438.694,103.196 C438.734,103.29 438.807,103.336 438.914,103.336 L439.514,103.336 C439.594,103.336 439.687,103.303 439.794,103.236 C439.901,103.17 440.007,103.086 440.114,102.986 C440.221,102.886 440.311,102.786 440.384,102.686 C440.457,102.586 440.494,102.51 440.494,102.456 C440.494,102.336 440.467,102.253 440.414,102.206 C440.361,102.16 440.291,102.123 440.204,102.096 C440.117,102.07 440.014,102.036 439.894,101.996 C439.774,101.956 439.647,101.876 439.514,101.756 C438.807,101.13 438.157,100.543 437.564,99.9965 C436.971,99.4498 436.351,98.8398 435.704,98.1665 C435.057,97.4932 434.341,96.7098 433.554,95.8165 C432.767,94.9232 431.834,93.8232 430.754,92.5165 C430.607,92.3298 430.464,92.1432 430.324,91.9565 C430.184,91.7698 430.101,91.6365 430.074,91.5565 C430.007,91.3965 429.951,91.2698 429.904,91.1765 C429.857,91.0832 429.797,91.0132 429.724,90.9665 C429.651,90.9198 429.561,90.8898 429.454,90.8765 C429.347,90.8632 429.201,90.8565 429.014,90.8565 C428.921,90.8565 428.804,90.8832 428.664,90.9365 C428.524,90.9898 428.387,91.0532 428.254,91.1265 C428.121,91.1998 428.004,91.2732 427.904,91.3465 C427.804,91.4198 427.754,91.4832 427.754,91.5365 C427.754,91.6432 427.821,91.7365 427.954,91.8165 C428.087,91.8965 428.247,92.0365 428.434,92.2365 L430.074,93.8965 C430.527,94.3498 430.754,94.7098 430.754,94.9765 C430.754,95.0965 430.687,95.3065 430.554,95.6065 C430.421,95.9065 430.247,96.2565 430.034,96.6565 C429.821,97.0565 429.574,97.4932 429.294,97.9665 C429.014,98.4398 428.727,98.9098 428.434,99.3765 C428.141,99.8432 427.847,100.29 427.554,100.716 C427.261,101.143 426.994,101.51 426.754,101.816 C426.581,102.043 426.427,102.223 426.294,102.356 C426.161,102.49 426.094,102.616 426.094,102.736 C426.094,102.883 426.207,102.996 426.434,103.076 C426.661,103.156 426.961,103.196 427.334,103.196 C427.521,103.196 427.621,103.13 427.634,102.996 C427.647,102.863 427.687,102.736 427.754,102.616 L428.754,100.876 C428.941,100.543 429.161,100.313 429.414,100.186 C429.667,100.06 430.047,99.9965 430.554,99.9965 M443.286,97.0165 C443.286,98.0698 443.29,98.9665 443.296,99.7065 C443.303,100.446 443.313,101.06 443.326,101.546 C443.34,102.033 443.363,102.413 443.396,102.686 C443.43,102.96 443.473,103.163 443.526,103.296 C443.58,103.43 443.643,103.513 443.716,103.546 C443.79,103.58 443.873,103.596 443.966,103.596 C444.193,103.596 444.356,103.466 444.456,103.206 C444.556,102.946 444.606,102.416 444.606,101.616 C444.606,99.2165 444.623,97.3265 444.656,95.9465 C444.69,94.5665 444.733,93.5832 444.786,92.9965 C444.8,92.7698 444.836,92.5732 444.896,92.4065 C444.956,92.2398 444.986,92.0765 444.986,91.9165 C444.986,91.8365 444.893,91.7398 444.706,91.6265 C444.52,91.5132 444.353,91.4565 444.206,91.4565 C444.113,91.4565 443.983,91.5065 443.816,91.6065 C443.65,91.7065 443.486,91.8232 443.326,91.9565 C443.166,92.0898 443.026,92.2298 442.906,92.3765 C442.786,92.5232 442.726,92.6365 442.726,92.7165 C442.726,92.8232 442.75,92.9332 442.796,93.0465 C442.843,93.1598 442.933,93.2898 443.066,93.4365 C443.146,93.5298 443.193,93.6398 443.206,93.7665 C443.22,93.8932 443.226,94.0498 443.226,94.2365 C443.226,94.5832 443.236,94.9565 443.256,95.3565 C443.276,95.7565 443.286,96.3098 443.286,97.0165 M451.503,98.2765 L451.503,92.6165 C451.663,92.5098 451.876,92.4132 452.143,92.3265 C452.409,92.2398 452.656,92.1965 452.883,92.1965 C453.069,92.1965 453.356,92.2698 453.743,92.4165 C454.129,92.5632 454.519,92.8065 454.913,93.1465 C455.306,93.4865 455.649,93.9365 455.943,94.4965 C456.236,95.0565 456.383,95.7565 456.383,96.5965 C456.383,97.7432 456.279,98.6832 456.073,99.4165 C455.866,100.15 455.576,100.73 455.203,101.156 C454.829,101.583 454.386,101.876 453.873,102.036 C453.359,102.196 452.789,102.276 452.163,102.276 C451.923,102.276 451.749,102.21 451.643,102.076 C451.536,101.943 451.483,101.623 451.483,101.116 C451.483,100.703 451.486,100.253 451.493,99.7665 C451.499,99.2798 451.503,98.7832 451.503,98.2765 M452.003,103.416 C452.083,103.416 452.229,103.393 452.443,103.346 C452.656,103.3 452.906,103.236 453.193,103.156 C453.479,103.076 453.789,102.976 454.123,102.856 C454.456,102.736 454.779,102.603 455.093,102.456 C455.406,102.31 455.693,102.146 455.953,101.966 C456.213,101.786 456.416,101.596 456.563,101.396 C456.803,101.063 457.003,100.726 457.163,100.386 C457.323,100.046 457.453,99.6698 457.553,99.2565 C457.653,98.8432 457.723,98.3732 457.763,97.8465 C457.803,97.3198 457.823,96.7098 457.823,96.0165 C457.823,95.2565 457.696,94.6065 457.443,94.0665 C457.189,93.5265 456.873,93.0765 456.493,92.7165 C456.113,92.3565 455.696,92.0732 455.243,91.8665 C454.789,91.6598 454.366,91.5032 453.973,91.3965 C453.579,91.2898 453.243,91.2232 452.963,91.1965 C452.683,91.1698 452.523,91.1565 452.483,91.1565 C452.389,91.1565 452.253,91.1732 452.073,91.2065 C451.893,91.2398 451.656,91.2965 451.363,91.3765 L449.963,91.7765 C449.616,91.8832 449.393,91.9732 449.293,92.0465 C449.193,92.1198 449.143,92.2498 449.143,92.4365 C449.143,92.5832 449.179,92.6732 449.253,92.7065 C449.326,92.7398 449.406,92.7632 449.493,92.7765 C449.579,92.7898 449.666,92.8065 449.753,92.8265 C449.839,92.8465 449.896,92.9165 449.923,93.0365 C449.963,93.2232 450.003,93.4598 450.043,93.7465 C450.083,94.0332 450.119,94.3432 450.153,94.6765 C450.186,95.0098 450.213,95.3465 450.233,95.6865 C450.253,96.0265 450.263,96.3432 450.263,96.6365 C450.263,97.3565 450.249,98.1365 450.223,98.9765 C450.196,99.8165 450.163,100.636 450.123,101.436 C450.109,101.703 450.069,101.91 450.003,102.056 C449.936,102.203 449.866,102.316 449.793,102.396 C449.719,102.476 449.653,102.546 449.593,102.606 C449.533,102.666 449.503,102.75 449.503,102.856 C449.503,102.963 449.553,103.04 449.653,103.086 C449.753,103.133 449.916,103.17 450.143,103.196 L451.263,103.336 C451.369,103.35 451.486,103.366 451.613,103.386 C451.739,103.406 451.869,103.416 452.003,103.416 M463.416,97.4165 C463.416,96.8432 463.489,96.2965 463.636,95.7765 C463.782,95.2565 463.996,94.8032 464.276,94.4165 C464.556,94.0298 464.902,93.7198 465.316,93.4865 C465.729,93.2532 466.196,93.1365 466.716,93.1365 C467.102,93.1365 467.476,93.2132 467.836,93.3665 C468.196,93.5198 468.516,93.7665 468.796,94.1065 C469.076,94.4465 469.302,94.8965 469.476,95.4565 C469.649,96.0165 469.736,96.7098 469.736,97.5365 C469.736,98.3365 469.632,98.9932 469.426,99.5065 C469.219,100.02 468.959,100.423 468.646,100.716 C468.332,101.01 468.002,101.21 467.656,101.316 C467.309,101.423 466.996,101.476 466.716,101.476 C466.049,101.476 465.502,101.31 465.076,100.976 C464.649,100.643 464.312,100.253 464.066,99.8065 C463.819,99.3598 463.649,98.9098 463.556,98.4565 C463.462,98.0032 463.416,97.6565 463.416,97.4165 M461.976,97.7365 C461.976,98.5632 462.102,99.2898 462.356,99.9165 C462.609,100.543 462.936,101.066 463.336,101.486 C463.736,101.906 464.189,102.223 464.696,102.436 C465.202,102.65 465.702,102.756 466.196,102.756 C466.822,102.756 467.426,102.636 468.006,102.396 C468.586,102.156 469.102,101.806 469.556,101.346 C470.009,100.886 470.372,100.316 470.646,99.6365 C470.919,98.9565 471.056,98.1765 471.056,97.2965 C471.056,96.3765 470.949,95.5798 470.736,94.9065 C470.522,94.2332 470.236,93.6798 469.876,93.2465 C469.516,92.8132 469.096,92.4932 468.616,92.2865 C468.136,92.0798 467.629,91.9765 467.096,91.9765 C466.176,91.9765 465.392,92.1532 464.746,92.5065 C464.099,92.8598 463.569,93.3165 463.156,93.8765 C462.742,94.4365 462.442,95.0565 462.256,95.7365 C462.069,96.4165 461.976,97.0832 461.976,97.7365 M464.596,88.7165 C464.596,88.8232 464.659,88.8965 464.786,88.9365 C464.912,88.9765 465.069,88.9965 465.256,88.9965 C466.189,88.9965 466.926,88.9765 467.466,88.9365 C468.006,88.8965 468.402,88.8765 468.656,88.8765 C468.709,88.8765 468.772,88.8532 468.846,88.8065 C468.919,88.7598 468.992,88.7065 469.066,88.6465 C469.139,88.5865 469.199,88.5232 469.246,88.4565 C469.292,88.3898 469.316,88.3432 469.316,88.3165 C469.316,88.2898 469.309,88.2432 469.296,88.1765 C469.282,88.1098 469.266,88.0398 469.246,87.9665 C469.226,87.8932 469.196,87.8298 469.156,87.7765 C469.116,87.7232 469.062,87.6965 468.996,87.6965 C468.836,87.6965 468.592,87.7198 468.266,87.7665 C467.939,87.8132 467.576,87.8365 467.176,87.8365 C466.882,87.8365 466.639,87.8232 466.446,87.7965 C466.252,87.7698 466.096,87.7365 465.976,87.6965 C465.856,87.6565 465.759,87.6232 465.686,87.5965 C465.612,87.5698 465.549,87.5565 465.496,87.5565 C465.376,87.5565 465.262,87.6065 465.156,87.7065 C465.049,87.8065 464.956,87.9232 464.876,88.0565 C464.796,88.1898 464.729,88.3198 464.676,88.4465 C464.622,88.5732 464.596,88.6632 464.596,88.7165 Z" style="stroke:none;fill-rule:nonzero;fill:#ffffff;fill-opacity:1;"/>
        </g>
    </g>
</svg>
